<?xml version="1.0" encoding="iso-8859-1"?>
<!-- Generator: Adobe Illustrator 19.0.0, SVG Export Plug-In . SVG Version: 6.00 Build 0)  -->
<svg xmlns="http://www.w3.org/2000/svg" xmlns:xlink="http://www.w3.org/1999/xlink" version="1.1" id="Layer_1" x="0px" y="0px" viewBox="0 0 512 512" style="enable-background:new 0 0 512 512;" xml:space="preserve">
<path style="fill:#DDDDDD;" d="M434.342,111.168c-25.001,0-365.065,0-377.957,0c-10.462,0-18.947,8.483-18.947,18.947  c0,14,0,256.544,0,272.802h415.85c0-4.244,0-269.221,0-272.802C453.288,119.652,444.805,111.168,434.342,111.168z"/>
<path style="fill:#D1D1D1;" d="M56.384,111.168c-10.462,0-18.947,8.483-18.947,18.947c0,14,0,256.544,0,272.802  c37.516,0-7.625,0,29.941,0c0-12.664,0-261.835,0-272.802c0-10.462,8.483-18.947,18.948-18.947  C48.81,111.168,93.95,111.168,56.384,111.168z"/>
<path style="fill:#FFFFFF;" d="M411.942,140.628c-4.469,0-326.73,0-333.156,0c-6.385,0-11.563,5.176-11.563,11.563  c0,6.9,0,200.81,0,207.701c0,6.386,5.176,11.563,11.563,11.563h333.156c6.387,0,11.563-5.177,11.563-11.563  c0-6.892,0-200.806,0-207.701C423.506,145.805,418.328,140.628,411.942,140.628z"/>
<path style="fill:#F5F5F5;" d="M107.971,359.894c0-6.892,0-200.806,0-207.701c0-6.387,5.179-11.563,11.563-11.563H78.786  c-6.385,0-11.563,5.176-11.563,11.563c0,6.9,0,200.81,0,207.701c0,6.386,5.176,11.563,11.563,11.563h40.749  C113.147,371.457,107.971,366.28,107.971,359.894z"/>
<path style="fill:#88DCE5;" d="M363.255,140.628c-12.257,0-271.794,0-284.469,0c-6.385,0-11.563,5.176-11.563,11.563v21.706  c12.316,0,299.008,0,309.047,0C369.349,164.313,364.744,152.954,363.255,140.628z"/>
<g>
	<path style="fill:#45CE73;" d="M107.971,140.628H78.786c-6.385,0-11.563,5.176-11.563,11.563v21.706h40.749V140.628z"/>
	<circle style="fill:#45CE73;" cx="432.526" cy="131.926" r="71.816"/>
</g>
<path style="fill:#35AF5A;" d="M399.217,107.489c0-17.17,6.033-32.924,16.084-45.281c-31.338,7.719-54.588,35.998-54.588,69.721  c0,39.663,32.154,71.816,71.816,71.816c22.495,0,42.565-10.348,55.732-26.535C442.765,188.415,399.217,153.905,399.217,107.489z"/>
<path style="fill:#C6C6C6;" d="M475.125,400.917H15.605c-4.395,0-7.957,3.562-7.957,7.956v2.454c0,26.058,21.2,40.56,47.259,40.56  h380.915c26.06,0,47.259-14.502,47.259-40.56v-2.454C483.08,404.479,479.516,400.917,475.125,400.917z"/>
<path style="fill:#98A09B;" d="M67.585,411.327v-2.454c0-4.394,3.562-7.956,7.956-7.956H15.605c-4.395,0-7.957,3.562-7.957,7.956  v2.454c0,26.058,21.2,40.56,47.259,40.56h59.936C88.783,451.887,67.585,437.385,67.585,411.327z"/>
<path style="fill:#999898;" d="M185.426,400.917v10.267c0,7.029,5.699,12.728,12.73,12.728h94.415  c7.031,0,12.728-5.699,12.728-12.728v-10.267H185.426z"/>
<path style="fill:#878686;" d="M245.363,411.185v-10.267h-59.937v10.267c0,7.029,5.699,12.728,12.73,12.728h59.937  C251.062,423.914,245.363,418.215,245.363,411.185z"/>
<path d="M475.254,393.503h-14.349V281.059c0-4.143-3.357-7.5-7.5-7.5s-7.5,3.357-7.5,7.5v112.444c-5.449,0-398.952,0-401.097,0  V130.04c0-6.317,5.14-11.457,11.457-11.457h298.124c-0.825,4.853-1.155,9.818-1.085,14.478c-11.661,0-262.913,0-274.625,0  c-10.516,0-19.071,8.555-19.071,19.071c0,8.743,0,199.084,0,207.824c0,10.516,8.555,19.071,19.071,19.071h333.356  c10.516,0,19.071-8.555,19.071-19.071l-0.002-148.779c4.445,0.085,9.249-0.136,14.802-1.075v44.614c0,4.143,3.357,7.5,7.5,7.5  s7.5-3.357,7.5-7.5v-48.724c46.766-17.897,65.267-73.825,39.244-115.858c-2.182-3.521-6.804-4.604-10.325-2.429  c-3.521,2.181-4.609,6.804-2.429,10.325c22.791,36.806,3.169,85.241-38.544,96.111c-47.172,12.245-90.956-30.847-78.496-78.527  c11.465-43.929,63.731-62.4,100.194-35.767c3.347,2.443,8.036,1.712,10.48-1.633c2.443-3.345,1.712-8.037-1.633-10.48  c-41.948-30.639-102.112-13.239-120.898,35.849H56.266c-14.59,0-26.458,11.868-26.458,26.458v263.463H15.462  C6.936,393.503,0,400.439,0,408.964c0,33.54,24.813,50.539,54.787,50.539h30.757c4.143,0,7.5-3.357,7.5-7.5s-3.357-7.5-7.5-7.5  H54.787c-18.355,0-39.786-8.664-39.786-33.083v-2.455c0-0.708-8.674-0.461,162.883-0.461v2.773c0,11.158,9.079,20.237,20.239,20.237  h94.471c11.158,0,20.237-9.078,20.237-20.237v-2.773c171.554,0,162.885-0.249,162.885,0.461v2.455  c0,24.419-21.433,33.083-39.786,33.083H111.545c-4.143,0-7.5,3.357-7.5,7.5s3.357,7.5,7.5,7.5h324.383  c30.197,0,54.787-17.15,54.787-50.539C490.715,400.439,483.78,393.503,475.254,393.503z M361.139,166.35H115.383v-18.29h239.56  C356.212,154.15,358.297,160.439,361.139,166.35z M74.61,152.131c0-2.244,1.826-4.07,4.07-4.07h21.702v18.29H74.61V152.131z   M416.105,359.956c0,2.244-1.826,4.07-4.07,4.07H78.681c-2.244,0-4.07-1.826-4.07-4.07V181.351c13.721,0,284.958,0,295.937,0  c11.276,14.154,27.233,24.224,45.557,28.12L416.105,359.956z M297.829,411.277c0,2.888-2.349,5.236-5.236,5.236h-94.471  c-2.889,0-5.238-2.349-5.238-5.236v-2.773h104.945V411.277z"/>
<path d="M457.205,112.551l-31.453,30.907l-13.866-12.785c-3.043-2.806-7.789-2.615-10.598,0.43c-2.808,3.045-2.615,7.79,0.43,10.598  c20.609,19.004,20.329,19.612,24.197,19.612c4.096,0,1.882,1.166,41.805-38.062c2.954-2.903,2.996-7.651,0.093-10.606  C464.909,109.69,460.16,109.65,457.205,112.551z"/>
<path d="M384.801,214.391h-95.318c-4.143,0-7.5,3.357-7.5,7.5s3.357,7.5,7.5,7.5h95.318c4.143,0,7.5-3.357,7.5-7.5  S388.944,214.391,384.801,214.391z"/>
<path d="M384.801,250.247h-95.318c-4.143,0-7.5,3.357-7.5,7.5s3.357,7.5,7.5,7.5h95.318c4.143,0,7.5-3.357,7.5-7.5  S388.944,250.247,384.801,250.247z"/>
<path d="M384.801,285.103h-95.318c-4.143,0-7.5,3.357-7.5,7.5s3.357,7.5,7.5,7.5h95.318c4.143,0,7.5-3.357,7.5-7.5  S388.944,285.103,384.801,285.103z"/>
<path d="M384.801,319.959h-95.318c-4.143,0-7.5,3.357-7.5,7.5s3.357,7.5,7.5,7.5h95.318c4.143,0,7.5-3.357,7.5-7.5  S388.944,319.959,384.801,319.959z"/>
<path d="M266.483,214.391h-4.686c-4.143,0-7.5,3.357-7.5,7.5s3.357,7.5,7.5,7.5h4.686c4.143,0,7.5-3.357,7.5-7.5  S270.625,214.391,266.483,214.391z"/>
<path d="M266.483,285.394h-4.686c-4.143,0-7.5,3.357-7.5,7.5s3.357,7.5,7.5,7.5h4.686c4.143,0,7.5-3.357,7.5-7.5  S270.625,285.394,266.483,285.394z"/>
<path d="M224.725,214.391h-95.318c-4.143,0-7.5,3.357-7.5,7.5s3.357,7.5,7.5,7.5h95.318c4.143,0,7.5-3.357,7.5-7.5  S228.868,214.391,224.725,214.391z"/>
<path d="M224.725,250.247h-95.318c-4.143,0-7.5,3.357-7.5,7.5s3.357,7.5,7.5,7.5h95.318c4.143,0,7.5-3.357,7.5-7.5  S228.868,250.247,224.725,250.247z"/>
<path d="M224.725,285.103h-95.318c-4.143,0-7.5,3.357-7.5,7.5s3.357,7.5,7.5,7.5h95.318c4.143,0,7.5-3.357,7.5-7.5  S228.868,285.103,224.725,285.103z"/>
<path d="M224.725,319.959h-95.318c-4.143,0-7.5,3.357-7.5,7.5s3.357,7.5,7.5,7.5h95.318c4.143,0,7.5-3.357,7.5-7.5  S228.868,319.959,224.725,319.959z"/>
<path d="M106.406,214.391h-4.686c-4.143,0-7.5,3.357-7.5,7.5s3.357,7.5,7.5,7.5h4.686c4.143,0,7.5-3.357,7.5-7.5  S110.549,214.391,106.406,214.391z"/>
<path d="M106.406,285.394h-4.686c-4.143,0-7.5,3.357-7.5,7.5s3.357,7.5,7.5,7.5h4.686c4.143,0,7.5-3.357,7.5-7.5  S110.549,285.394,106.406,285.394z"/>
<g>
</g>
<g>
</g>
<g>
</g>
<g>
</g>
<g>
</g>
<g>
</g>
<g>
</g>
<g>
</g>
<g>
</g>
<g>
</g>
<g>
</g>
<g>
</g>
<g>
</g>
<g>
</g>
<g>
</g>
</svg>
